<svg width="77" height="80" viewBox="0 0 77 80" fill="none" xmlns="http://www.w3.org/2000/svg">
<path d="M38.2158 3C45.2635 3 51.5161 4.5146 56.8555 7.66895H56.8564C62.1907 10.7754 66.3079 15.1513 69.1768 20.7305L69.4414 21.2539C72.1331 26.6868 73.4316 32.9075 73.4316 39.835C73.4316 46.9343 72.0461 53.3146 69.1797 58.8916L69.1768 58.8975C66.3077 64.4484 62.1925 68.8196 56.8672 71.9521L56.8633 71.9551C52.1731 74.7026 46.7734 76.197 40.7461 76.5186C39.9144 76.5629 39.0709 76.585 38.2158 76.585C37.2023 76.585 36.2048 76.5546 35.2236 76.4922C29.3782 76.1203 24.1236 74.6321 19.5332 71.959L19.5234 71.9541L19.5146 71.9482C14.2188 68.8145 10.1224 64.4436 7.25586 58.8975L7.25195 58.8916C4.38555 53.3146 3 46.9343 3 39.835C3.00003 32.6866 4.38263 26.2905 7.25195 20.7363C10.1185 15.159 14.2194 10.7817 19.5264 7.67285C24.8934 4.51707 31.1615 3.00001 38.2158 3Z" fill="#2C9361" stroke="#00328E" stroke-width="6"/>
<path fill-rule="evenodd" clip-rule="evenodd" d="M38 7C37.3103 7.06735 35.8276 7.46329 35.4138 8.5082V13.2951C33.0862 15.306 26.1034 18.7246 16.7931 16.3115C15.931 16.4372 14.4138 17.3672 15.2414 20.082H17.8276L10.8448 41.5738H8C9.37931 43.9617 13.7414 48.7377 20.1552 48.7377C26.569 48.7377 30.069 43.9617 31.0172 41.5738H28.431L20.1552 20.082C22.3458 20.459 28.4645 20.5344 35.4138 17.8197V58.1639H30.2414C28.9483 58.4153 26.3621 59.823 26.3621 63.4426H35.4138V73V73.4979C36.3293 73.5561 37.2633 73.5852 38.2159 73.5852C39.0194 73.5852 39.8095 73.5645 40.5862 73.5231V73V63.4426H49.6379C49.6379 59.8229 47.0517 58.4153 45.7586 58.1639H40.5862V17.8197C47.5355 20.5344 53.6542 20.459 55.8448 20.082L47.569 41.5738H44.9828C45.931 43.9617 49.431 48.7377 55.8448 48.7377C62.2586 48.7377 66.6207 43.9617 68 41.5738H65.1552L58.1724 20.082H60.7586C61.5862 17.3672 60.069 16.4372 59.2069 16.3115C49.8965 18.7246 42.9138 15.306 40.5862 13.2951V8.5082C40.1724 7.46329 38.6897 7.06735 38 7ZM13.431 41.5738L19.1207 22.3443L25.8448 41.5738H13.431ZM62.569 41.5738L56.8793 22.3443L50.1552 41.5738H62.569Z" fill="#00328E"/>
<path d="M56.8793 22.3443L62.569 41.5738H50.1552L56.8793 22.3443Z" fill="#2C9361"/>
<path d="M19.1207 22.3443L13.431 41.5738H25.8448L19.1207 22.3443Z" fill="#2C9361"/>
<path d="M40.5862 73.5231C46.2081 73.2231 51.1282 71.8376 55.3466 69.3665C60.1761 66.5256 63.8977 62.5767 66.5114 57.5199C69.125 52.4347 70.4318 46.5398 70.4318 39.8352C70.4318 33.0739 69.125 27.1648 66.5114 22.108C63.8977 17.0227 60.1761 13.0739 55.3466 10.2614C50.5455 7.42045 44.8352 6 38.2159 6C31.5966 6 25.8722 7.42045 21.0426 10.2614C16.2415 13.0739 12.5341 17.0227 9.92046 22.108C7.30682 27.1648 6 33.0739 6 39.8352C6 46.5398 7.30682 52.4347 9.92046 57.5199C12.5341 62.5767 16.2415 66.5256 21.0426 69.3665C25.1772 71.7742 29.9675 73.1514 35.4138 73.4979M40.5862 73.5231C39.8095 73.5645 39.0194 73.5852 38.2159 73.5852C37.2633 73.5852 36.3293 73.5561 35.4138 73.4979M40.5862 73.5231V73V63.4426H49.6379C49.6379 59.8229 47.0517 58.4153 45.7586 58.1639H40.5862V17.8197C47.5355 20.5344 53.6542 20.459 55.8448 20.082L47.569 41.5738H44.9828C45.931 43.9617 49.431 48.7377 55.8448 48.7377C62.2586 48.7377 66.6207 43.9617 68 41.5738H65.1552L58.1724 20.082H60.7586C61.5862 17.3672 60.069 16.4372 59.2069 16.3115C49.8965 18.7246 42.9138 15.306 40.5862 13.2951V8.5082C40.1724 7.46329 38.6897 7.06735 38 7C37.3103 7.06735 35.8276 7.46329 35.4138 8.5082V13.2951C33.0862 15.306 26.1034 18.7246 16.7931 16.3115C15.931 16.4372 14.4138 17.3672 15.2414 20.082H17.8276L10.8448 41.5738H8C9.37931 43.9617 13.7414 48.7377 20.1552 48.7377C26.569 48.7377 30.069 43.9617 31.0172 41.5738H28.431L20.1552 20.082C22.3458 20.459 28.4645 20.5344 35.4138 17.8197V58.1639H30.2414C28.9483 58.4153 26.3621 59.823 26.3621 63.4426H35.4138V73V73.4979M19.1207 22.3443L13.431 41.5738H25.8448L19.1207 22.3443ZM56.8793 22.3443L62.569 41.5738H50.1552L56.8793 22.3443Z" stroke="#00328E"/>
</svg>
