<svg width="415" height="94" viewBox="0 0 415 94" fill="none" xmlns="http://www.w3.org/2000/svg">
<path d="M0 87.2727V0H58.8068V15.2131H18.4517V36.0085H55.7813V51.2216H18.4517V72.0597H58.9773V87.2727H0Z" fill="#00328E"/>
<path d="M102.71 88.5511C96.005 88.5511 90.2379 87.1307 85.4084 84.2898C80.6072 81.4205 76.9141 77.4432 74.3288 72.358C71.772 67.2727 70.4936 61.4205 70.4936 54.8011C70.4936 48.0966 71.7862 42.2159 74.3715 37.1591C76.9851 32.0739 80.6925 28.1108 85.4936 25.2699C90.2947 22.4006 96.005 20.9659 102.624 20.9659C108.335 20.9659 113.335 22.0028 117.624 24.0767C121.914 26.1506 125.309 29.0625 127.809 32.8125C130.309 36.5625 131.687 40.9659 131.942 46.0227H114.812C114.329 42.7557 113.05 40.1278 110.977 38.1392C108.931 36.1222 106.246 35.1136 102.923 35.1136C100.11 35.1136 97.6527 35.8807 95.5504 37.4148C93.4766 38.9205 91.8572 41.1222 90.6925 44.0199C89.5277 46.9176 88.9453 50.4261 88.9453 54.5455C88.9453 58.7216 89.5135 62.2727 90.6499 65.1989C91.8146 68.125 93.4482 70.3551 95.5504 71.8892C97.6527 73.4233 100.11 74.1903 102.923 74.1903C104.996 74.1903 106.857 73.7642 108.505 72.9119C110.181 72.0597 111.559 70.8239 112.638 69.2045C113.746 67.5568 114.471 65.5824 114.812 63.2812H131.942C131.658 68.2812 130.295 72.6847 127.852 76.4915C125.437 80.2699 122.099 83.2244 117.837 85.3551C113.576 87.4858 108.533 88.5511 102.71 88.5511Z" fill="#00328E"/>
<path d="M217.5 87.2727V0H235.952V72.0597H273.366V87.2727H217.5Z" fill="#00328E"/>
<path d="M315.075 88.5511C308.342 88.5511 302.546 87.1875 297.688 84.4602C292.859 81.7045 289.137 77.8125 286.523 72.7841C283.91 67.7273 282.603 61.7472 282.603 54.8438C282.603 48.1108 283.91 42.2017 286.523 37.1165C289.137 32.0312 292.816 28.0682 297.56 25.2273C302.333 22.3864 307.93 20.9659 314.35 20.9659C318.668 20.9659 322.688 21.6619 326.41 23.054C330.16 24.4176 333.427 26.4773 336.211 29.233C339.023 31.9886 341.211 35.4545 342.773 39.6307C344.336 43.7784 345.117 48.6364 345.117 54.2045V59.1903H289.847V47.9403H328.029C328.029 45.3267 327.461 43.0114 326.325 40.9943C325.188 38.9773 323.612 37.4006 321.594 36.2642C319.606 35.0994 317.29 34.517 314.648 34.517C311.893 34.517 309.45 35.1562 307.319 36.4347C305.217 37.6847 303.569 39.375 302.376 41.5057C301.183 43.608 300.572 45.9517 300.543 48.5369V59.233C300.543 62.4716 301.14 65.2699 302.333 67.6278C303.555 69.9858 305.273 71.804 307.489 73.0824C309.705 74.3608 312.333 75 315.373 75C317.39 75 319.236 74.7159 320.913 74.1477C322.589 73.5795 324.023 72.7273 325.217 71.5909C326.41 70.4546 327.319 69.0625 327.944 67.4148L344.734 68.5227C343.881 72.5568 342.134 76.0796 339.492 79.0909C336.879 82.0739 333.498 84.4034 329.35 86.0796C325.231 87.7273 320.472 88.5511 315.075 88.5511Z" fill="#00328E"/>
<path d="M370.962 21.8182L382.979 44.7017L395.295 21.8182H413.917L394.954 54.5455L414.428 87.2727H395.891L382.979 64.6449L370.281 87.2727H351.531L370.962 54.5455L352.212 21.8182H370.962Z" fill="#00328E"/>
<path fill-rule="evenodd" clip-rule="evenodd" d="M173.415 22.2727C172.725 22.3401 171.242 22.736 170.829 23.7809V28.5678C168.501 30.5787 161.518 33.9973 152.208 31.5842C151.346 31.7099 149.829 32.6399 150.656 35.3547H153.242L146.26 56.8465H143.415C144.794 59.2345 149.156 64.0104 155.57 64.0104C161.984 64.0104 165.484 59.2345 166.432 56.8465H163.846L155.57 35.3547C157.761 35.7317 163.879 35.8071 170.829 33.0924V73.4366H165.656C164.363 73.688 161.777 75.0957 161.777 78.7153H170.829V88.2727V88.7706C171.744 88.8288 172.678 88.8579 173.631 88.8579C174.434 88.8579 175.224 88.8372 176.001 88.7958V88.2727V78.7153H185.053C185.053 75.0957 182.466 73.688 181.173 73.4366H176.001V33.0924C182.95 35.8071 189.069 35.7317 191.26 35.3547L182.984 56.8465H180.398C181.346 59.2345 184.846 64.0104 191.26 64.0104C197.673 64.0104 202.035 59.2345 203.415 56.8465H200.57L193.587 35.3547H196.173C197.001 32.6399 195.484 31.7099 194.622 31.5842C185.311 33.9973 178.329 30.5787 176.001 28.5678V23.7809C175.587 22.736 174.104 22.3401 173.415 22.2727ZM148.846 56.8465L154.535 37.617L161.26 56.8465H148.846ZM197.984 56.8465L192.294 37.617L185.57 56.8465H197.984Z" fill="#00328E"/>
<path d="M145.335 72.7926C147.949 77.8494 151.656 81.7983 156.457 84.6392C160.592 87.0469 165.382 88.4241 170.829 88.7706V88.2727V78.7153H161.777C161.777 75.0957 164.363 73.688 165.656 73.4366H170.829V33.0924C163.879 35.8071 157.761 35.7317 155.57 35.3547L163.846 56.8465H166.432C165.484 59.2345 161.984 64.0104 155.57 64.0104C149.156 64.0104 144.794 59.2345 143.415 56.8465H146.26L153.242 35.3547H150.656C149.829 32.6399 151.346 31.7099 152.208 31.5842C161.518 33.9973 168.501 30.5787 170.829 28.5678V23.7809C171.242 22.736 172.725 22.3401 173.415 22.2727C174.104 22.3401 175.587 22.736 176.001 23.7809V28.5678C178.329 30.5787 185.311 33.9973 194.622 31.5842C195.484 31.7099 197.001 32.6399 196.173 35.3547H193.587L200.57 56.8465H203.415C202.035 59.2345 197.673 64.0104 191.26 64.0104C184.846 64.0104 181.346 59.2345 180.398 56.8465H182.984L191.26 35.3547C189.069 35.7317 182.95 35.8071 176.001 33.0924V73.4366H181.173C182.466 73.688 185.053 75.0957 185.053 78.7153H176.001V88.2727V88.7958C181.623 88.4958 186.543 87.1103 190.761 84.6392C195.591 81.7983 199.312 77.8494 201.926 72.7926C204.54 67.7074 205.847 61.8125 205.847 55.1079C205.847 48.3466 204.54 42.4375 201.926 37.3807C199.312 32.2954 195.591 28.3466 190.761 25.5341C185.96 22.6932 180.25 21.2727 173.631 21.2727C167.011 21.2727 161.287 22.6932 156.457 25.5341C151.656 28.3466 147.949 32.2954 145.335 37.3807C142.722 42.4375 141.415 48.3466 141.415 55.1079C141.415 61.8125 142.722 67.7074 145.335 72.7926Z" fill="#2C9361"/>
<path d="M192.294 37.617L197.984 56.8465H185.57L192.294 37.617Z" fill="#2C9361"/>
<path d="M154.535 37.617L148.846 56.8465H161.26L154.535 37.617Z" fill="#2C9361"/>
<path d="M173.631 18.7727C180.614 18.7727 186.782 20.2737 192.035 23.3821H192.034C197.277 26.439 201.323 30.7409 204.147 36.2327L204.408 36.7483C207.06 42.1008 208.346 48.2431 208.346 55.1077C208.346 62.1412 206.974 68.4407 204.15 73.9358L204.147 73.9407C201.321 79.4092 197.272 83.7103 192.029 86.7942L192.025 86.7961C188.033 89.1347 183.51 90.5531 178.501 91.0989V91.1663L176.134 91.2922L173.501 91.4329V91.3557C173.443 91.3556 173.386 91.3551 173.329 91.3547V91.4348L170.67 91.2659L168.329 91.1165V91.0491C163.485 90.4703 159.095 89.0679 155.199 86.7991L155.192 86.7952L155.184 86.7903C149.971 83.7053 145.938 79.4053 143.114 73.9407L143.112 73.9358C140.288 68.4407 138.915 62.1412 138.915 55.1077C138.915 48.0217 140.286 41.7051 143.114 36.2327C145.938 30.741 149.971 26.4375 155.19 23.3792L155.687 23.093C160.855 20.1821 166.865 18.7727 173.631 18.7727Z" stroke="#00328E" stroke-width="5"/>
</svg>
